# xmcd
#
# Track frame offsets:
#	150
#	13525
#	29214
#	51134
#	68749
#	80559
#	100720
#	112179
#	132215
#	149295
#	169778
#	192160
#	208753
#	227357
#	242985
#	266030
#	281350
#	296412
#	314704
#
# Disc length: 4441 seconds
# Revision: 0
# Processed by: cddbd v1.5.2PL0 Copyright (c) Steve Scherf et al.
# Submitted via: dBpowerAMP V12.0
#
DISCID=1d115713
DTITLE=Lightnin' Hopkins - Eight Classic Albums disc 2
DYEAR=2014
DGENRE=Blues
TTITLE0=Mojo Hand
TTITLE1=Coffee For Mama
TTITLE2=Awful Dream
TTITLE3=Black Mare Trot
TTITLE4=Have You Ever Loved A Woman
TTITLE5=Glory Be
TTITLE6=Sometimes She Will
TTITLE7=Shine on, Moon
TTITLE8=Santa
TTITLE9=Automobile Blues
TTITLE10=You Better Watch Yourself
TTITLE11=Mean Old Frisco
TTITLE12=Shinin' Moon
TTITLE13=Come Back Baby
TTITLE14=Thinkin' 'Bout An Old Friend
TTITLE15=The Walkin' Blues
TTITLE16=Back To New Orleans
TTITLE17=Katie Mae
TTITLE18=Down There Baby
EXTD=
EXTT0=
EXTT1=
EXTT2=
EXTT3=
EXTT4=
EXTT5=
EXTT6=
EXTT7=
EXTT8=
EXTT9=
EXTT10=
EXTT11=
EXTT12=
EXTT13=
EXTT14=
EXTT15=
EXTT16=
EXTT17=
EXTT18=
PLAYORDER=
